<svg xmlns="http://www.w3.org/2000/svg" xmlns:xlink="http://www.w3.org/1999/xlink" width="48" zoomAndPan="magnify" viewBox="0 0 36 36.000001" height="48" preserveAspectRatio="xMidYMid meet" version="1.0"><defs><clipPath id="15613fd47b"><path d="M 0.488281 0 L 35.511719 0 L 35.511719 35.027344 L 0.488281 35.027344 Z M 0.488281 0 " clip-rule="nonzero"/></clipPath><clipPath id="868adf2242"><path d="M 20 0 L 29 0 L 29 8 L 20 8 Z M 20 0 " clip-rule="nonzero"/></clipPath><clipPath id="8893e256fd"><path d="M 21.941406 -1.128906 L 29.59375 2.304688 L 27.097656 7.871094 L 19.441406 4.4375 Z M 21.941406 -1.128906 " clip-rule="nonzero"/></clipPath><clipPath id="0abbedcd8a"><path d="M 21.941406 -1.128906 L 29.59375 2.304688 L 27.097656 7.871094 L 19.441406 4.4375 Z M 21.941406 -1.128906 " clip-rule="nonzero"/></clipPath><clipPath id="8026933f93"><path d="M 21 19 L 32 19 L 32 32 L 21 32 Z M 21 19 " clip-rule="nonzero"/></clipPath><clipPath id="3901d79d27"><path d="M 26.074219 15.664062 L 35.3125 19.257812 L 28.675781 36.3125 L 19.4375 32.71875 Z M 26.074219 15.664062 " clip-rule="nonzero"/></clipPath><clipPath id="32f8c8dd79"><path d="M 9.058594 4.121094 L 36.773438 14.910156 L 26.816406 40.492188 L -0.898438 29.707031 Z M 9.058594 4.121094 " clip-rule="nonzero"/></clipPath><clipPath id="4da7631b6b"><path d="M 19 15 L 29 15 L 29 33 L 19 33 Z M 19 15 " clip-rule="nonzero"/></clipPath><clipPath id="cf7f203435"><path d="M 26.074219 15.664062 L 35.3125 19.257812 L 28.675781 36.3125 L 19.4375 32.71875 Z M 26.074219 15.664062 " clip-rule="nonzero"/></clipPath><clipPath id="1e0e3c617a"><path d="M 9.058594 4.121094 L 36.773438 14.910156 L 26.816406 40.492188 L -0.898438 29.707031 Z M 9.058594 4.121094 " clip-rule="nonzero"/></clipPath><clipPath id="0950781bd6"><path d="M 4 14 L 14 14 L 14 26 L 4 26 Z M 4 14 " clip-rule="nonzero"/></clipPath><clipPath id="de3e64729c"><path d="M 6.5 10.691406 L 14.316406 13.734375 L 9.617188 25.816406 L 1.796875 22.773438 Z M 6.5 10.691406 " clip-rule="nonzero"/></clipPath><clipPath id="5ac2ff7279"><path d="M 9.058594 4.121094 L 36.773438 14.910156 L 26.816406 40.492188 L -0.898438 29.707031 Z M 9.058594 4.121094 " clip-rule="nonzero"/></clipPath><clipPath id="b0f14f7c08"><path d="M 6 11 L 15 11 L 15 26 L 6 26 Z M 6 11 " clip-rule="nonzero"/></clipPath><clipPath id="b03fb1e34d"><path d="M 6.5 10.691406 L 14.316406 13.734375 L 9.617188 25.816406 L 1.796875 22.773438 Z M 6.5 10.691406 " clip-rule="nonzero"/></clipPath><clipPath id="1d6998ffaf"><path d="M 9.058594 4.121094 L 36.773438 14.910156 L 26.816406 40.492188 L -0.898438 29.707031 Z M 9.058594 4.121094 " clip-rule="nonzero"/></clipPath><clipPath id="90a96de0da"><path d="M 0.761719 2.699219 L 32.027344 2.699219 L 32.027344 33.964844 L 0.761719 33.964844 Z M 0.761719 2.699219 " clip-rule="nonzero"/></clipPath><clipPath id="9bbcb601fd"><rect x="0" width="36" y="0" height="36"/></clipPath></defs><g clip-path="url(#15613fd47b)"><g transform="matrix(1, 0, 0, 1, 0.000000000000000056, 0.000000000000010582)"><g clip-path="url(#9bbcb601fd)"><g clip-path="url(#868adf2242)"><g clip-path="url(#8893e256fd)"><g clip-path="url(#0abbedcd8a)"><path fill="#5e17eb" d="M 28.574219 4.367188 C 28.484375 4.445312 28.402344 4.507812 28.277344 4.492188 C 28.140625 4.480469 28.03125 4.289062 28.226562 4.289062 C 28.320312 4.285156 28.3125 4.167969 28.253906 4.128906 C 28.144531 4.0625 28.007812 4.117188 27.941406 4.21875 C 27.917969 4.257812 27.90625 4.292969 27.902344 4.332031 C 27.453125 4.429688 27.039062 4.574219 26.605469 4.738281 C 26.421875 4.808594 26.207031 4.910156 26 4.859375 C 25.804688 4.808594 25.753906 4.625 25.792969 4.441406 C 25.839844 4.230469 25.984375 4.042969 26.09375 3.859375 C 26.210938 3.664062 26.328125 3.460938 26.449219 3.265625 C 26.679688 2.871094 26.882812 2.460938 27.078125 2.050781 C 27.160156 2.058594 27.238281 2.042969 27.320312 2.003906 C 27.441406 1.949219 27.542969 1.835938 27.570312 1.699219 C 27.597656 1.550781 27.539062 1.382812 27.367188 1.386719 C 27.3125 1.386719 27.277344 1.4375 27.265625 1.484375 C 27.234375 1.609375 27.339844 1.707031 27.1875 1.792969 C 27.09375 1.847656 27 1.824219 26.933594 1.761719 C 26.9375 1.753906 26.9375 1.746094 26.941406 1.734375 C 26.9375 1.625 26.847656 1.542969 26.738281 1.554688 C 26.667969 1.5625 26.636719 1.632812 26.652344 1.699219 C 26.667969 1.757812 26.691406 1.8125 26.71875 1.851562 C 26.53125 2.039062 26.320312 2.191406 26.121094 2.367188 C 25.929688 2.539062 25.761719 2.738281 25.582031 2.929688 C 25.414062 3.109375 25.25 3.292969 25.074219 3.46875 C 24.941406 3.605469 24.675781 3.8125 24.488281 3.640625 C 24.359375 3.523438 24.367188 3.292969 24.375 3.136719 C 24.386719 2.882812 24.394531 2.625 24.417969 2.371094 C 24.460938 1.863281 24.554688 1.367188 24.644531 0.867188 C 24.644531 0.863281 24.644531 0.855469 24.644531 0.851562 C 24.710938 0.835938 24.777344 0.792969 24.832031 0.730469 C 24.960938 0.582031 24.960938 0.332031 24.785156 0.214844 C 24.613281 0.105469 24.355469 0.257812 24.445312 0.46875 C 24.476562 0.546875 24.597656 0.558594 24.640625 0.488281 C 24.640625 0.488281 24.640625 0.492188 24.640625 0.492188 C 24.636719 0.511719 24.640625 0.527344 24.628906 0.550781 C 24.617188 0.589844 24.585938 0.625 24.546875 0.636719 C 24.484375 0.660156 24.433594 0.621094 24.40625 0.566406 C 24.410156 0.503906 24.410156 0.441406 24.394531 0.382812 C 24.375 0.296875 24.257812 0.261719 24.214844 0.351562 C 24.140625 0.515625 24.195312 0.667969 24.300781 0.757812 C 24.292969 0.785156 24.285156 0.8125 24.273438 0.839844 C 24.261719 0.863281 24.296875 0.878906 24.308594 0.855469 C 24.320312 0.835938 24.332031 0.8125 24.34375 0.789062 C 24.347656 0.792969 24.351562 0.796875 24.355469 0.800781 C 24.351562 0.804688 24.34375 0.808594 24.34375 0.816406 C 24.128906 1.230469 23.941406 1.648438 23.6875 2.039062 C 23.476562 2.363281 23.277344 2.769531 22.972656 3.019531 C 22.589844 3.332031 22.347656 2.882812 22.160156 2.585938 C 21.941406 2.242188 21.789062 1.878906 21.65625 1.5 C 21.816406 1.398438 21.890625 1.1875 21.777344 1.019531 C 21.730469 0.945312 21.648438 0.886719 21.5625 0.871094 C 21.4375 0.855469 21.367188 0.914062 21.324219 1.023438 C 21.289062 1.109375 21.375 1.234375 21.476562 1.183594 C 21.511719 1.167969 21.484375 1.160156 21.5 1.167969 C 21.519531 1.179688 21.53125 1.195312 21.53125 1.214844 C 21.535156 1.261719 21.476562 1.304688 21.4375 1.316406 C 21.367188 1.339844 21.300781 1.316406 21.257812 1.269531 C 21.285156 1.144531 21.277344 1.027344 21.195312 0.925781 C 21.148438 0.867188 21.046875 0.867188 21.015625 0.945312 C 20.914062 1.179688 21.03125 1.410156 21.222656 1.511719 C 21.21875 1.519531 21.21875 1.527344 21.222656 1.539062 C 21.285156 1.828125 21.304688 2.117188 21.347656 2.410156 C 21.390625 2.695312 21.417969 2.984375 21.433594 3.269531 C 21.445312 3.554688 21.410156 3.84375 21.425781 4.132812 C 21.4375 4.324219 21.421875 4.511719 21.402344 4.703125 C 21.257812 4.6875 21.113281 4.679688 20.972656 4.683594 C 20.925781 4.683594 20.917969 4.757812 20.957031 4.773438 C 21.097656 4.832031 21.242188 4.890625 21.382812 4.945312 C 21.378906 4.976562 21.378906 5.011719 21.375 5.042969 C 21.375 5.085938 21.429688 5.109375 21.449219 5.066406 C 21.460938 5.039062 21.472656 5.007812 21.480469 4.984375 C 22.171875 5.246094 22.878906 5.464844 23.550781 5.769531 C 23.976562 5.960938 24.390625 6.179688 24.789062 6.417969 C 24.976562 6.527344 25.15625 6.679688 25.355469 6.753906 C 25.398438 6.773438 25.445312 6.792969 25.488281 6.816406 C 25.460938 6.855469 25.4375 6.898438 25.414062 6.941406 C 25.390625 6.972656 25.449219 7.011719 25.476562 6.980469 C 25.503906 6.9375 25.539062 6.898438 25.574219 6.859375 C 25.714844 6.9375 25.847656 7.03125 26 7.089844 C 26.070312 7.117188 26.148438 7.035156 26.097656 6.96875 C 26.007812 6.84375 25.886719 6.75 25.769531 6.652344 C 25.882812 6.535156 26.003906 6.433594 26.121094 6.328125 C 26.34375 6.125 26.542969 5.90625 26.773438 5.710938 C 27 5.515625 27.242188 5.335938 27.496094 5.175781 C 27.71875 5.027344 27.914062 4.839844 28.136719 4.691406 C 28.34375 4.78125 28.617188 4.710938 28.769531 4.566406 C 28.886719 4.460938 28.699219 4.261719 28.574219 4.367188 Z M 27.308594 4.921875 C 27.039062 5.09375 26.789062 5.285156 26.546875 5.496094 C 26.320312 5.691406 26.082031 5.898438 25.910156 6.144531 C 25.816406 6.273438 25.734375 6.414062 25.652344 6.550781 C 25.632812 6.53125 25.617188 6.511719 25.59375 6.492188 C 25.4375 6.316406 25.21875 6.207031 25.019531 6.085938 C 24.601562 5.835938 24.167969 5.609375 23.722656 5.40625 C 23.050781 5.101562 22.316406 4.828125 21.570312 4.730469 C 21.617188 4.5625 21.648438 4.390625 21.699219 4.21875 C 21.785156 3.929688 21.769531 3.597656 21.757812 3.296875 C 21.746094 2.992188 21.714844 2.6875 21.652344 2.386719 C 21.589844 2.101562 21.46875 1.828125 21.355469 1.558594 C 21.410156 1.570312 21.464844 1.570312 21.519531 1.558594 C 21.589844 1.996094 21.742188 2.449219 21.960938 2.832031 C 22.171875 3.203125 22.507812 3.601562 22.972656 3.386719 C 23.148438 3.308594 23.292969 3.164062 23.410156 3.011719 C 23.566406 2.8125 23.71875 2.589844 23.835938 2.359375 C 23.964844 2.113281 24.074219 1.855469 24.175781 1.59375 C 24.273438 1.351562 24.375 1.097656 24.429688 0.84375 C 24.429688 0.839844 24.429688 0.839844 24.429688 0.835938 C 24.46875 0.847656 24.507812 0.855469 24.550781 0.859375 C 24.347656 1.414062 24.230469 1.996094 24.132812 2.578125 C 24.0625 2.976562 23.941406 3.636719 24.34375 3.910156 C 24.832031 4.238281 25.300781 3.683594 25.597656 3.363281 C 25.808594 3.136719 26.027344 2.910156 26.234375 2.675781 C 26.441406 2.441406 26.601562 2.171875 26.804688 1.929688 C 26.839844 1.960938 26.882812 1.988281 26.929688 2.007812 C 26.617188 2.429688 26.316406 2.867188 26.042969 3.324219 C 25.898438 3.566406 25.738281 3.808594 25.609375 4.054688 C 25.507812 4.246094 25.4375 4.460938 25.472656 4.679688 C 25.558594 5.148438 26.039062 5.246094 26.4375 5.128906 C 26.953125 4.976562 27.453125 4.75 27.921875 4.488281 C 27.933594 4.519531 27.949219 4.546875 27.96875 4.574219 C 27.984375 4.589844 27.996094 4.609375 28.011719 4.621094 C 27.773438 4.707031 27.53125 4.777344 27.308594 4.921875 Z M 27.308594 4.921875 " fill-opacity="1" fill-rule="nonzero"/></g></g></g><g clip-path="url(#8026933f93)"><g clip-path="url(#3901d79d27)"><g clip-path="url(#32f8c8dd79)"><path fill="#5e17eb" d="M 23.472656 30.988281 C 25.769531 29.996094 28.15625 29.308594 30.625 28.882812 C 31.492188 28.734375 31.886719 27.710938 31.351562 27.015625 C 30.496094 25.902344 29.902344 24.5 29.226562 23.273438 C 28.5625 22.0625 27.75 20.949219 27.066406 19.75 C 26.824219 19.320312 26.167969 19.589844 26.355469 20.066406 C 26.851562 21.335938 27.203125 22.664062 27.722656 23.9375 C 28.09375 24.855469 28.574219 25.804688 28.933594 26.769531 C 26.695312 27.113281 24.519531 27.722656 22.402344 28.550781 C 20.808594 29.175781 21.894531 31.671875 23.472656 30.988281 Z M 23.472656 30.988281 " fill-opacity="1" fill-rule="nonzero"/></g></g></g><g clip-path="url(#4da7631b6b)"><g clip-path="url(#cf7f203435)"><g clip-path="url(#1e0e3c617a)"><path fill="#5e17eb" d="M 8.972656 32.03125 C 9.007812 31.988281 13.527344 27.488281 15.140625 25.886719 C 18.78125 22.277344 22.417969 18.660156 26.054688 15.050781 C 26.898438 14.214844 27.722656 13.398438 28.460938 12.46875 C 28.78125 12.0625 28.226562 11.574219 27.828125 11.855469 C 25.253906 13.683594 23.007812 16.058594 20.675781 18.179688 C 16.890625 21.628906 13.113281 25.082031 9.347656 28.550781 C 8.730469 29.121094 6.980469 30.640625 6.800781 30.894531 C 6.484375 31.335938 5.957031 31.839844 6.644531 32.542969 C 7.203125 33.191406 8.328125 32.925781 8.972656 32.03125 Z M 8.972656 32.03125 " fill-opacity="1" fill-rule="nonzero"/></g></g></g><g clip-path="url(#0950781bd6)"><g clip-path="url(#de3e64729c)"><g clip-path="url(#5ac2ff7279)"><path fill="#5e17eb" d="M 9.75 16.941406 C 10.992188 16.355469 12.144531 15.613281 13.371094 15.011719 C 13.832031 14.785156 13.53125 14.144531 13.058594 14.296875 C 11.75 14.71875 10.394531 14.992188 9.085938 15.433594 C 7.757812 15.882812 6.375 16.511719 4.992188 16.753906 C 4.128906 16.910156 3.726562 17.925781 4.265625 18.621094 C 5.796875 20.605469 7.089844 22.722656 8.109375 25.011719 C 8.8125 26.578125 11.300781 25.476562 10.546875 23.941406 C 9.546875 21.894531 8.355469 19.976562 6.9375 18.207031 C 7.855469 17.746094 8.851562 17.367188 9.75 16.941406 Z M 9.75 16.941406 " fill-opacity="1" fill-rule="nonzero"/></g></g></g><g clip-path="url(#b0f14f7c08)"><g clip-path="url(#b03fb1e34d)"><g clip-path="url(#1d6998ffaf)"><path fill="#5e17eb" d="M 8.972656 32.03125 C 9.007812 31.988281 13.527344 27.484375 15.140625 25.886719 C 18.78125 22.277344 22.417969 18.660156 26.054688 15.050781 C 26.898438 14.214844 27.722656 13.398438 28.460938 12.46875 C 28.78125 12.0625 28.226562 11.574219 27.828125 11.855469 C 25.253906 13.683594 23.003906 16.058594 20.675781 18.179688 C 16.890625 21.625 13.113281 25.082031 9.347656 28.550781 C 8.730469 29.121094 6.980469 30.640625 6.800781 30.894531 C 6.484375 31.335938 5.957031 31.835938 6.644531 32.542969 C 7.199219 33.191406 8.328125 32.925781 8.972656 32.03125 Z M 8.972656 32.03125 " fill-opacity="1" fill-rule="nonzero"/></g></g></g><g clip-path="url(#90a96de0da)"><path fill="#8c52ff" d="M 32.191406 2.699219 L 25.320312 9.167969 L 25.320312 5.476562 L 19.363281 5.476562 L 19.363281 14.792969 L 16.039062 17.898438 L 0.761719 34.011719 L 16.953125 18.8125 Z M 15.964844 32.296875 C 18.851562 32.296875 21.226562 31.457031 22.835938 29.8125 C 24.40625 28.242188 25.320312 25.902344 25.320312 22.757812 L 25.320312 11.796875 L 19.363281 18.082031 L 19.363281 22.503906 C 19.363281 25.574219 18.011719 26.890625 15.820312 26.890625 C 14.429688 26.890625 13.226562 26.34375 12.09375 25.359375 L 8.183594 29.230469 C 9.972656 30.945312 12.457031 32.296875 15.964844 32.296875 Z M 15.964844 32.296875 " fill-opacity="1" fill-rule="evenodd"/></g></g></g></g></svg>